#N canvas 130 130 450 300 12;
#X obj 65 23 netreceive 8000;
#X obj 65 47 oscparse;
#X obj 65 71 route /data;
#X obj 65 108 unpack s f f;
#X obj 148 225 *~ 0.5;
#X obj 148 249 dac~;
#X obj 148 177 phasor~ 1;
#X obj 148 153 * 0.1;
#X obj 148 201 cos~;
#X connect 0 0 1 0;
#X connect 1 0 2 0;
#X connect 2 0 3 0;
#X connect 3 2 7 0;
#X connect 4 0 5 0;
#X connect 4 0 5 1;
#X connect 6 0 8 0;
#X connect 7 0 6 0;
#X connect 8 0 4 0;
